<?xml version="1.0" encoding="UTF-8"?>
<svg id="Layer_2" data-name="Layer 2" xmlns="http://www.w3.org/2000/svg" viewBox="0 0 105.78 82.12">
  <defs>
    <style>
      .cls-1 {
        fill: #010101;
      }

      .cls-2 {
        fill: #ef393b;
      }

      .cls-3 {
        fill: #f4af3f;
      }

      .cls-4 {
        fill: #1b6393;
      }

      .cls-5 {
        fill: #ece5da;
      }
    </style>
  </defs>
  <g id="logos">
    <g>
      <path class="cls-5" d="M103.16,51.4c-1.13-1.19-2.3-2.04-3.55-2.57,4.76-4.52,7-11.17,5.9-17.77-1.4-8.41-8.29-15.11-16.76-16.29-2.37-.33-4.73-.24-6.99.25-.07-1.58-.67-3.12-1.72-4.33-1.49-1.72-3.73-2.61-6.01-2.4-1.54.15-3.02.86-4.18,2.02-.85.84-1.45,1.78-1.82,2.78l-.25.18c-.52-.15-1.06-.25-1.6-.3.26-1.36.2-2.78-.18-4.18-.88-3.2-3.44-5.65-6.67-6.4-2.76-.64-5.6,0-7.8,1.74-.95.75-1.72,1.67-2.3,2.69-1.67-1.03-3.59-1.68-5.64-1.82-3.09-.22-6.09.7-8.51,2.59l-1.35-.63c-.47-1.69-1.47-3.22-3.06-4.69-1.24-1.15-2.72-1.88-4.29-2.14-2.89-.47-5.75.43-7.85,2.46-2.09,2.03-3.07,4.86-2.69,7.76.21,1.62.86,3.1,1.81,4.34C8.51,15.68,1.13,23.03.12,32.2c-.62,5.64,1.18,11.29,4.94,15.49,3.77,4.2,9.16,6.62,14.8,6.62.1,0,.19,0,.29,0-.75,1.2-1.27,2.47-1.53,3.78-.75,3.71.19,7.51,2.56,10.4,2.37,2.9,5.88,4.56,9.62,4.56,1.72,0,3.43-.36,4.99-1.05l1.14.93c0,1,.15,2.01.48,2.99,1.05,3.11,3.68,5.43,6.88,6.05.59.11,1.18.17,1.76.17,2.11,0,4.16-.72,5.81-2.09,1.51-1.24,2.55-2.91,3.03-4.75.94.36,2.04.64,3.32.77,2.93.32,7.57-1.72,8.94-6.31l1.27-.48c2.69,2.44,6.33,3.59,10.01,3.1,4.9-.65,9.43-4.96,10.49-9.81,1.44,2.03,3.68,3.46,6.25,3.79,2.73.36,5.45-.51,7.45-2.38,2-1.88,3.05-4.52,2.87-7.26-.13-1.95-.96-3.83-2.36-5.3ZM87.79,54.28s-.02-.04-.03-.07c.02,0,.04,0,.06,0,0,.02-.02.05-.03.07Z"/>
      <polygon class="cls-1" points="52.81 44.14 52.62 44.09 18.22 34.63 41.28 17.42 24.53 9.66 25.12 8.4 43.97 17.15 21.33 34.04 52.81 42.7 84.09 34.09 63.93 22 74.21 14.66 75.02 15.79 66.46 21.9 87.59 34.57 52.81 44.14"/>
      <path class="cls-1" d="M46.4,74.13l-18.46-14.98,19.46,4.48,4.71-20.34,4.53-33.91,9.1,12.15-1.11.83-7.06-9.42-4.1,30.64-4.72,20.37,9.5,2.19,17.87-6.73,9.62-26.91,11.19,24.41-1.26.58-9.77-21.31-8.69,24.3-18.87,7.11-9.91-2.28-2.05,8.83ZM33.48,61.85l12.08,9.8,1.54-6.66-13.62-3.14Z"/>
      <polygon class="cls-1" points="76.29 60.51 52.24 43.87 52.16 43.68 41.98 17.54 43.27 17.03 53.38 42.97 77.08 59.37 76.29 60.51"/>
      <circle class="cls-4" cx="19.77" cy="34.33" r="14.86"/>
      <circle class="cls-2" cx="30.71" cy="60.5" r="7.43"/>
      <circle class="cls-2" cx="42.62" cy="17.29" r="7.43"/>
      <circle class="cls-4" cx="76.68" cy="59.94" r="7.43"/>
      <circle class="cls-3" cx="57.12" cy="11.16" r="4.13"/>
      <circle class="cls-3" cx="96.32" cy="57.19" r="4.13"/>
      <circle class="cls-4" cx="45.98" cy="72.89" r="4.13"/>
      <circle class="cls-2" cx="58.31" cy="66.86" r="4.13"/>
      <circle class="cls-4" cx="65.19" cy="21.95" r="4.13"/>
      <circle class="cls-3" cx="52.81" cy="43.42" r="16.52"/>
      <circle class="cls-2" cx="85.84" cy="34.33" r="14.86"/>
      <circle class="cls-3" cx="24.82" cy="9.03" r="4.13"/>
      <circle class="cls-3" cx="74.62" cy="15.22" r="2.06"/>
      <path class="cls-5" d="M19.64,43.57c-1.48,0-2.77-.23-3.85-.69-1.08-.46-2.07-1.17-2.97-2.14l2.85-2.85c.6.63,1.25,1.12,1.95,1.47s1.49.52,2.37.52c.75,0,1.33-.13,1.74-.39.41-.26.61-.61.61-1.06s-.15-.78-.46-1.05c-.31-.27-.7-.5-1.19-.7-.48-.2-1.02-.4-1.62-.6s-1.19-.43-1.77-.7c-.58-.27-1.12-.6-1.61-1.01-.49-.41-.89-.91-1.19-1.5-.3-.59-.45-1.34-.45-2.24,0-1.12.27-2.08.81-2.9.54-.82,1.3-1.44,2.26-1.86.97-.42,2.09-.64,3.37-.64s2.47.22,3.56.65c1.09.43,1.98,1.03,2.66,1.8l-2.85,2.85c-.53-.55-1.07-.96-1.61-1.22-.54-.27-1.15-.4-1.81-.4-.62,0-1.1.11-1.45.32-.35.22-.52.53-.52.92s.15.72.45.96c.3.24.7.46,1.19.66.49.2,1.03.4,1.62.6.59.2,1.18.43,1.76.7.58.27,1.12.61,1.61,1.02.49.42.89.94,1.19,1.57.3.63.45,1.4.45,2.3,0,1.75-.63,3.12-1.87,4.1-1.25.98-2.99,1.47-5.22,1.47Z"/>
      <path class="cls-1" d="M19.64,44.26c-1.57,0-2.96-.25-4.12-.74-1.17-.49-2.25-1.27-3.21-2.3l-.46-.49,3.83-3.83.49.52c.54.57,1.13,1.02,1.76,1.33.6.3,1.29.45,2.06.45.6,0,1.08-.1,1.37-.28.24-.15.29-.3.29-.48,0-.23-.07-.39-.22-.52-.25-.22-.59-.41-1-.58-.47-.19-1-.39-1.58-.58-.62-.21-1.24-.45-1.84-.73-.64-.29-1.23-.66-1.77-1.11-.56-.47-1.02-1.04-1.36-1.72-.35-.69-.52-1.54-.52-2.55,0-1.25.31-2.36.93-3.28.61-.93,1.48-1.64,2.56-2.11,1.05-.46,2.28-.7,3.65-.7s2.65.24,3.82.7c1.19.47,2.17,1.14,2.92,1.98l.44.49-3.81,3.81-.49-.51c-.48-.49-.95-.86-1.42-1.09-.44-.22-.95-.33-1.51-.33-.48,0-.85.08-1.08.22-.16.1-.2.2-.2.33,0,.19.06.31.19.42.25.2.59.39,1.01.56.48.19,1.01.39,1.59.59.61.21,1.22.45,1.83.73.64.29,1.23.67,1.77,1.13.57.48,1.03,1.09,1.37,1.81.34.72.52,1.6.52,2.6,0,1.97-.72,3.53-2.14,4.65-1.37,1.08-3.27,1.62-5.65,1.62ZM13.79,40.74c.7.65,1.46,1.16,2.26,1.5.99.42,2.2.63,3.58.63,2.06,0,3.68-.45,4.79-1.33,1.08-.85,1.61-2.01,1.61-3.55,0-.79-.13-1.47-.38-2-.26-.54-.6-.99-1.01-1.34-.44-.37-.93-.68-1.45-.92-.56-.26-1.13-.48-1.7-.67-.6-.2-1.16-.41-1.66-.61-.56-.23-1.01-.48-1.36-.77-.46-.37-.71-.89-.71-1.5s.3-1.17.85-1.52c.47-.29,1.06-.43,1.82-.43s1.48.16,2.12.47c.43.21.87.51,1.29.88l1.88-1.88c-.54-.47-1.18-.86-1.94-1.16-1-.4-2.12-.6-3.31-.6s-2.22.19-3.1.58c-.85.37-1.49.9-1.96,1.61-.47.71-.7,1.53-.7,2.52,0,.79.13,1.43.37,1.92.26.5.6.94,1.01,1.28.44.37.93.68,1.46.92.56.25,1.13.48,1.71.67.61.2,1.18.41,1.67.62.55.23,1.01.5,1.38.82.46.4.7.94.7,1.58,0,.69-.32,1.26-.94,1.65-.53.33-1.22.49-2.11.49-.99,0-1.89-.2-2.69-.6-.57-.29-1.12-.66-1.63-1.12l-1.88,1.88Z"/>
      <path class="cls-5" d="M54.16,52.66c-1.35,0-2.6-.23-3.75-.7-1.15-.47-2.15-1.11-3.01-1.94-.86-.82-1.53-1.8-2-2.91-.48-1.12-.71-2.33-.71-3.65s.23-2.5.7-3.61c.47-1.11,1.13-2.07,1.99-2.89.86-.82,1.86-1.46,3-1.92,1.14-.47,2.39-.7,3.74-.7s2.66.22,3.77.66c1.12.44,2.1,1.05,2.95,1.81l-3,3.02c-.43-.47-.96-.83-1.57-1.1-.62-.27-1.33-.4-2.15-.4-.7,0-1.35.12-1.96.36-.61.24-1.12.59-1.55,1.04s-.76.99-1,1.62c-.24.63-.36,1.33-.36,2.1s.12,1.52.36,2.15c.24.63.58,1.17,1,1.62.42.45.94.8,1.54,1.05.6.25,1.26.37,1.97.37.83,0,1.56-.13,2.19-.39.62-.26,1.17-.62,1.64-1.09l3,3c-.87.77-1.85,1.37-2.94,1.81-1.09.44-2.37.66-3.84.66Z"/>
      <path class="cls-1" d="M54.16,53.35c-1.43,0-2.78-.25-4.01-.75-1.23-.5-2.31-1.2-3.23-2.08-.92-.89-1.65-1.94-2.16-3.14-.51-1.2-.77-2.52-.77-3.92s.25-2.69.75-3.88c.5-1.19,1.22-2.24,2.15-3.12.92-.87,2-1.57,3.22-2.06,1.22-.5,2.57-.75,4-.75s2.84.24,4.03.71c1.19.47,2.25,1.12,3.16,1.94l.54.49-4.02,4.06-.49-.53c-.37-.39-.82-.71-1.34-.94-.53-.23-1.16-.34-1.87-.34-.61,0-1.18.11-1.71.31-.51.2-.95.5-1.3.87-.36.38-.65.85-.86,1.4-.21.55-.32,1.17-.32,1.85,0,.71.11,1.35.32,1.9.21.54.5,1.01.86,1.4.35.38.79.67,1.3.89.51.21,1.09.32,1.71.32.74,0,1.39-.11,1.92-.33.54-.22,1.01-.54,1.41-.94l.49-.49,4.01,4.01-.55.49c-.92.82-1.98,1.47-3.14,1.94-1.17.47-2.55.71-4.1.71ZM54.11,35.03c-1.25,0-2.42.22-3.47.65-1.06.43-1.99,1.03-2.78,1.79-.78.75-1.4,1.64-1.83,2.65-.43,1.02-.65,2.14-.65,3.34s.22,2.35.66,3.38c.44,1.02,1.06,1.93,1.84,2.68.79.76,1.73,1.36,2.79,1.79,1.06.43,2.23.65,3.49.65,1.37,0,2.57-.21,3.58-.61.78-.32,1.5-.72,2.16-1.22l-2-2c-.41.32-.85.58-1.34.78-.71.29-1.53.44-2.45.44-.8,0-1.56-.14-2.24-.43-.69-.29-1.29-.7-1.78-1.21-.49-.52-.87-1.14-1.14-1.85-.27-.71-.41-1.52-.41-2.4s.14-1.64.41-2.35c.27-.72.66-1.34,1.14-1.85.49-.52,1.1-.93,1.8-1.21.69-.27,1.43-.41,2.22-.41.91,0,1.72.15,2.42.46.47.2.9.46,1.28.77l1.99-2.01c-.65-.49-1.38-.9-2.18-1.22-1.03-.41-2.21-.61-3.52-.61Z"/>
      <polygon class="cls-5" points="92.19 29.32 92.19 25.54 83.96 25.54 83.04 25.54 79.49 25.54 79.49 43.27 83.96 43.27 83.96 36.64 91.81 36.64 91.81 32.87 83.96 32.87 83.96 29.32 92.19 29.32"/>
      <path class="cls-1" d="M84.66,43.96h-5.86v-19.11h14.09v5.16h-8.22v2.16h7.85v5.16h-7.85v6.62ZM80.18,42.57h3.09v-6.62h7.85v-2.39h-7.85v-4.94h8.22v-2.39h-11.31v16.33Z"/>
    </g>
  </g>
</svg>